<svg width="17" height="18" viewBox="0 0 17 18" fill="none" xmlns="http://www.w3.org/2000/svg">
<path d="M11.5151 5.32553C10.8371 5.32553 10.3351 5.50187 9.94207 5.72462C9.87907 5.49362 9.67207 5.3245 9.42807 5.37503H6.44407C6.14907 5.3245 5.91007 5.57097 6.00107 5.89065V17.2344C5.91007 17.5232 6.14907 17.7707 6.44407 17.75H9.42807C9.72307 17.7707 9.96207 17.5232 9.96207 17.2189L9.96107 10.3632C9.96007 10.3601 9.94907 10.0322 10.1501 9.80631C10.3111 9.62687 10.5881 9.53509 10.9711 9.53509C11.6091 9.53509 11.8931 9.80425 11.9991 10.4065V17.2189C11.8941 17.5232 12.1331 17.7707 12.4281 17.75H15.5731C15.8681 17.7707 16.1071 17.5232 16.0011 17.2189V10.1776C16.1061 6.59706 13.6331 5.32553 11.5151 5.32553ZM15.0381 16.7188H12.9621V10.4065C12.9621 9.18859 12.1991 8.43372 10.9721 8.43372C10.2781 8.43372 9.73806 8.64409 9.36607 9.05865C8.84906 9.63615 8.88907 10.3683 9.00007 10.5313V16.7188H6.97807V6.4269H8.89406V6.7734C8.89328 6.87662 8.92076 6.97798 8.97332 7.06582C9.02589 7.15366 9.10143 7.22443 9.19125 7.26999C9.28106 7.31555 9.38153 7.33405 9.48108 7.32337C9.58064 7.31269 9.67526 7.27327 9.75407 7.20962L9.89406 7.09825C10.2991 6.76928 10.7181 6.42794 11.5161 6.42794C12.3421 6.42794 15.0391 6.69916 15.0391 10.1786L15.0381 16.7188ZM3.00007 0.183716C1.87806 0.183716 0.966064 1.12422 0.966064 2.28128C0.966064 3.43834 1.87806 4.37884 3.00007 4.37884C4.12207 4.37884 5.03407 3.43834 5.03407 2.28128C5.03407 1.12422 4.12207 0.183716 3.00007 0.183716ZM3.00007 3.27747C2.46807 3.27747 2.03407 2.8299 2.03407 2.28128C2.03407 1.73265 2.46807 1.28509 3.00007 1.28509C3.53207 1.28509 3.96606 1.73265 3.96606 2.28128C3.96606 2.8299 3.53207 3.27747 3.00007 3.27747ZM4.42807 5.3245H1.46006C1.16506 5.3245 0.926065 5.57097 1.00006 5.89065V17.2344C0.926065 17.5232 1.16506 17.7707 1.46006 17.75H4.42807C4.72307 17.7707 4.96207 17.5232 4.96207 17.2189V5.87519C4.96207 5.72913 4.90581 5.58906 4.80566 5.48579C4.70552 5.38252 4.56969 5.3245 4.42807 5.3245ZM4.00007 16.7188H1.99407V6.4269H4.00007V16.7188Z" fill="black" fill-opacity="0.5"/>
</svg>
