<svg width="19" height="16" viewBox="0 0 19 16" fill="none" xmlns="http://www.w3.org/2000/svg">
<path d="M17.5688 2.39122C17.6832 2.17948 17.7775 1.95747 17.8504 1.72812C17.8841 1.62174 17.8848 1.50762 17.8523 1.40084C17.8199 1.29405 17.7558 1.19963 17.6685 1.13003C17.5813 1.06043 17.475 1.01893 17.3636 1.01101C17.2523 1.00308 17.1412 1.02911 17.045 1.08565C16.5165 1.39957 15.9445 1.63346 15.3475 1.77969C14.6228 1.12564 13.6817 0.763053 12.7055 0.761841C12.1751 0.762248 11.6503 0.869743 11.1625 1.07788C10.6747 1.28602 10.2339 1.59051 9.86665 1.9731C9.49936 2.3557 9.21312 2.80852 9.02507 3.30441C8.83702 3.80031 8.75103 4.32907 8.77228 4.859C6.45301 4.56703 4.33515 3.39343 2.85806 1.58168C2.80146 1.51305 2.72914 1.45908 2.64723 1.42438C2.56531 1.38967 2.47623 1.37525 2.38756 1.38234C2.29888 1.38942 2.21322 1.41781 2.13786 1.46508C2.0625 1.51235 1.99966 1.57712 1.95468 1.65387C1.61646 2.23439 1.43262 2.89189 1.4207 3.56365C1.40879 4.2354 1.5692 4.89901 1.88662 5.49115C1.80877 5.50429 1.73398 5.53155 1.66593 5.57159C1.58255 5.62476 1.5139 5.69807 1.46632 5.78476C1.41874 5.87145 1.39376 5.96873 1.39368 6.06762C1.39368 7.23809 1.91446 8.31265 2.7539 9.04278L2.71781 9.07887C2.65443 9.15056 2.61083 9.23753 2.5913 9.3312C2.57177 9.42487 2.57699 9.52202 2.60643 9.61306C2.78148 10.1591 3.07375 10.6604 3.46279 11.0816C3.85183 11.5029 4.32824 11.8341 4.85868 12.052C3.76926 12.5834 2.55008 12.7907 1.34625 12.6491C1.2225 12.6364 1.09807 12.6652 0.992442 12.7309C0.886816 12.7966 0.805965 12.8955 0.762558 13.0121C0.720873 13.1295 0.720091 13.2576 0.760337 13.3755C0.800584 13.4934 0.879498 13.5943 0.984277 13.6617C2.62088 14.7121 4.52482 15.2702 6.4695 15.2695C12.8426 15.2695 16.6521 10.0926 16.6521 5.08794L16.651 4.91881C17.2687 4.43661 17.8052 3.85868 18.2402 3.20693C18.3061 3.10841 18.3384 2.99129 18.3326 2.87291C18.3267 2.75454 18.2828 2.6412 18.2075 2.54969C18.1322 2.45818 18.0294 2.39335 17.9144 2.36481C17.7994 2.33627 17.6782 2.34553 17.5688 2.39122ZM15.7693 4.20106C15.6945 4.25487 15.6343 4.32657 15.5943 4.40962C15.5543 4.49267 15.5358 4.58441 15.5404 4.67647C15.5466 4.81259 15.5497 4.95078 15.5497 5.0869C15.5497 9.55015 12.1537 14.1671 6.47053 14.1671C5.45691 14.1675 4.45045 13.9974 3.49331 13.6638C4.63964 13.4441 5.71651 12.9525 6.63346 12.2304C6.72272 12.16 6.78807 12.0638 6.82056 11.9548C6.85305 11.8459 6.85111 11.7296 6.815 11.6218C6.77888 11.5141 6.71036 11.4201 6.6188 11.3527C6.52724 11.2854 6.41711 11.2479 6.30346 11.2455C5.85882 11.237 5.42239 11.1242 5.02937 10.916C4.63636 10.7079 4.29777 10.4103 4.0409 10.0472C4.30181 10.0297 4.55756 9.98637 4.80609 9.91934C4.92637 9.88715 5.0322 9.81514 5.10629 9.71507C5.18039 9.615 5.21838 9.49277 5.21407 9.36833C5.20976 9.24388 5.16341 9.12457 5.08257 9.02987C5.00173 8.93516 4.89119 8.87064 4.76896 8.84684C4.26677 8.74469 3.8018 8.50792 3.42379 8.16188C3.04578 7.81584 2.76895 7.37355 2.62293 6.88231C2.89725 6.9514 3.17878 6.99162 3.46031 7.0009C3.70265 6.99987 3.92746 6.85137 4.00275 6.61831C4.07803 6.38525 3.98934 6.12847 3.78412 5.99234C3.29889 5.66905 2.92528 5.20386 2.71431 4.6603C2.50335 4.11673 2.46531 3.5213 2.6054 2.95531C4.39672 4.79332 6.81553 5.88783 9.37865 6.02018C9.56015 6.02122 9.71896 5.95625 9.82931 5.82322C9.93965 5.69018 9.98193 5.51384 9.94275 5.34472C9.8017 4.73731 9.86479 4.10035 10.1222 3.53241C10.3797 2.96447 10.8171 2.49721 11.3669 2.20295C11.9167 1.90869 12.5481 1.80384 13.1635 1.90461C13.7789 2.00538 14.3439 2.30616 14.7711 2.7604C14.8351 2.82871 14.9154 2.87961 15.0046 2.90829C15.0937 2.93698 15.1886 2.94251 15.2805 2.92437C15.4507 2.89034 15.6187 2.85115 15.7848 2.80578C15.7099 2.86181 15.6321 2.91379 15.5517 2.9615C15.4448 3.027 15.3633 3.12699 15.3208 3.24497C15.2783 3.36295 15.2773 3.4919 15.3179 3.61055C15.3585 3.72921 15.4383 3.83049 15.5441 3.89772C15.65 3.96494 15.7756 3.9941 15.9003 3.98037L16.088 3.95665C15.9846 4.04179 15.8783 4.12331 15.7693 4.20106Z" fill="black" fill-opacity="0.5"/>
</svg>
